# xmcd
#
# Track frame offsets: 
#        150
#        13778
#        27362
#        47693
#        67036
#        85739
#        103786
#        116143
#        137105
#        152303
#        168134
#        185345
#        197112
#        214622
#
# Disc length: 3043 seconds
#
# Revision: 6
# Processed by: cddbd v1.5.2PL0 Copyright (c) Steve Scherf et al.
# Submitted via: ExactAudioCopy v1.3
#
DISCID=b90be10e
DTITLE=東京事変 - 大発見
DYEAR=2011
DGENRE=J-Rock
TTITLE0=天国へようこそ　For The Disc
TTITLE1=絶対値対相対値
TTITLE2=新しい文明開化
TTITLE3=電気のない都市
TTITLE4=海底に巣くう男
TTITLE5=禁じられた遊び
TTITLE6=ドーパミント!　BPM103
TTITLE7=恐るべき大人達
TTITLE8=21世紀宇宙の子
TTITLE9=かつては男と女
TTITLE10=空が鳴っている
TTITLE11=風に肖って行け
TTITLE12=女の子は誰でも
TTITLE13=天国へようこそ　For The Tube
EXTD=YEAR: 2011
EXTT0=
EXTT1=
EXTT2=
EXTT3=
EXTT4=
EXTT5=
EXTT6=
EXTT7=
EXTT8=
EXTT9=
EXTT10=
EXTT11=
EXTT12=
EXTT13=
PLAYORDER=
